<?xml version="1.0" encoding="UTF-8"?>
<svg xmlns="http://www.w3.org/2000/svg" xmlns:xlink="http://www.w3.org/1999/xlink" width="30px" height="30px" viewBox="0 0 30 30" version="1.1">
<g id="surface1">
<path style=" stroke:none;fill-rule:nonzero;fill:rgb(90.980392%,7.843137%,7.843137%);fill-opacity:1;" d="M 10.570312 12.714844 C 9.445312 12.714844 8.421875 13.144531 7.648438 13.847656 C 6.878906 13.144531 5.851562 12.714844 4.730469 12.714844 L 4.5 12.714844 L 4.5 17.285156 L 6.683594 17.285156 L 6.683594 17.054688 C 6.683594 16.59375 6.765625 16.152344 6.914062 15.742188 C 7.183594 16.21875 7.367188 16.6875 7.367188 17.269531 L 7.929688 17.269531 C 7.929688 16.660156 8.066406 16.171875 8.359375 15.683594 C 8.523438 16.109375 8.613281 16.570312 8.613281 17.054688 L 8.613281 17.285156 L 10.796875 17.285156 L 10.796875 12.714844 Z M 10.339844 13.179688 L 10.339844 13.742188 C 10.179688 13.777344 10.019531 13.824219 9.867188 13.882812 L 9.867188 13.234375 C 10.023438 13.207031 10.179688 13.1875 10.339844 13.179688 Z M 9.410156 14.085938 C 9.046875 14.277344 8.722656 14.523438 8.445312 14.820312 C 8.308594 14.589844 8.148438 14.375 7.96875 14.171875 C 8.378906 13.804688 8.871094 13.519531 9.40625 13.347656 L 9.40625 14.085938 Z M 5.820312 14.078125 L 5.820312 13.328125 C 6.386719 13.496094 6.902344 13.789062 7.328125 14.171875 C 7.140625 14.382812 6.972656 14.609375 6.828125 14.855469 C 6.542969 14.542969 6.203125 14.277344 5.820312 14.078125 Z M 5.363281 13.222656 L 5.363281 13.875 C 5.234375 13.828125 5.097656 13.789062 4.957031 13.753906 L 4.957031 13.179688 C 5.09375 13.1875 5.230469 13.203125 5.363281 13.222656 Z M 4.957031 16.828125 L 4.957031 14.226562 C 5.097656 14.265625 5.234375 14.3125 5.363281 14.367188 L 5.363281 16.828125 Z M 6.234375 16.828125 L 5.820312 16.828125 L 5.820312 14.605469 C 6.117188 14.792969 6.382812 15.023438 6.601562 15.292969 C 6.390625 15.765625 6.261719 16.285156 6.234375 16.828125 Z M 7.621094 16.226562 C 7.507812 15.871094 7.34375 15.539062 7.136719 15.242188 C 7.277344 14.972656 7.449219 14.722656 7.648438 14.496094 C 7.835938 14.710938 8 14.945312 8.136719 15.195312 C 7.914062 15.507812 7.738281 15.851562 7.621094 16.226562 Z M 9.066406 16.828125 C 9.035156 16.265625 8.898438 15.734375 8.675781 15.25 C 8.886719 15 9.132812 14.785156 9.410156 14.609375 L 9.410156 16.828125 Z M 9.867188 16.828125 L 9.867188 14.371094 C 10.019531 14.308594 10.175781 14.253906 10.339844 14.210938 L 10.339844 16.828125 Z M 9.867188 16.828125 "/>
<path style=" stroke:none;fill-rule:nonzero;fill:rgb(100%,100%,100%);fill-opacity:1;" d="M 11.339844 13.492188 L 11.511719 13.492188 L 11.914062 14.476562 L 11.925781 14.476562 L 12.328125 13.492188 L 12.5 13.492188 L 12.5 14.675781 L 12.367188 14.675781 L 12.367188 13.777344 L 12.355469 13.777344 L 11.984375 14.675781 L 11.855469 14.675781 L 11.484375 13.777344 L 11.472656 13.777344 L 11.472656 14.675781 L 11.339844 14.675781 Z M 13.785156 14.085938 C 13.785156 14.210938 13.765625 14.316406 13.71875 14.410156 C 13.675781 14.5 13.613281 14.570312 13.535156 14.621094 C 13.457031 14.667969 13.367188 14.695312 13.265625 14.695312 C 13.164062 14.695312 13.074219 14.667969 12.996094 14.621094 C 12.917969 14.570312 12.855469 14.5 12.808594 14.410156 C 12.765625 14.316406 12.742188 14.210938 12.742188 14.085938 C 12.742188 13.960938 12.765625 13.851562 12.808594 13.761719 C 12.855469 13.671875 12.917969 13.601562 12.996094 13.550781 C 13.074219 13.5 13.164062 13.476562 13.265625 13.476562 C 13.367188 13.476562 13.457031 13.5 13.535156 13.550781 C 13.613281 13.601562 13.675781 13.671875 13.71875 13.761719 C 13.765625 13.851562 13.785156 13.960938 13.785156 14.085938 Z M 13.648438 14.085938 C 13.648438 13.984375 13.632812 13.894531 13.597656 13.824219 C 13.5625 13.753906 13.515625 13.703125 13.457031 13.664062 C 13.402344 13.628906 13.335938 13.609375 13.265625 13.609375 C 13.191406 13.609375 13.128906 13.628906 13.070312 13.664062 C 13.011719 13.703125 12.964844 13.753906 12.929688 13.824219 C 12.898438 13.894531 12.878906 13.984375 12.878906 14.085938 C 12.878906 14.1875 12.898438 14.273438 12.929688 14.34375 C 12.964844 14.414062 13.011719 14.46875 13.070312 14.503906 C 13.128906 14.542969 13.191406 14.558594 13.265625 14.558594 C 13.335938 14.558594 13.402344 14.542969 13.457031 14.503906 C 13.515625 14.46875 13.5625 14.414062 13.597656 14.34375 C 13.632812 14.273438 13.648438 14.1875 13.648438 14.085938 Z M 14.394531 14.675781 L 14.027344 14.675781 L 14.027344 13.492188 L 14.410156 13.492188 C 14.523438 13.492188 14.621094 13.515625 14.703125 13.5625 C 14.785156 13.609375 14.847656 13.679688 14.890625 13.765625 C 14.933594 13.855469 14.957031 13.960938 14.957031 14.082031 C 14.957031 14.207031 14.933594 14.3125 14.890625 14.402344 C 14.847656 14.488281 14.785156 14.558594 14.699219 14.605469 C 14.617188 14.652344 14.511719 14.675781 14.394531 14.675781 Z M 14.171875 14.550781 L 14.382812 14.550781 C 14.480469 14.550781 14.5625 14.53125 14.628906 14.492188 C 14.691406 14.457031 14.738281 14.402344 14.769531 14.332031 C 14.800781 14.261719 14.820312 14.179688 14.820312 14.082031 C 14.820312 13.988281 14.804688 13.90625 14.773438 13.835938 C 14.742188 13.765625 14.695312 13.714844 14.632812 13.675781 C 14.570312 13.640625 14.492188 13.621094 14.398438 13.621094 L 14.171875 13.621094 Z M 15.199219 14.675781 L 15.199219 13.492188 L 15.914062 13.492188 L 15.914062 13.621094 L 15.339844 13.621094 L 15.339844 14.019531 L 15.875 14.019531 L 15.875 14.148438 L 15.339844 14.148438 L 15.339844 14.550781 L 15.921875 14.550781 L 15.921875 14.675781 Z M 16.171875 14.675781 L 16.171875 13.492188 L 16.570312 13.492188 C 16.664062 13.492188 16.738281 13.507812 16.800781 13.539062 C 16.859375 13.570312 16.902344 13.613281 16.929688 13.667969 C 16.960938 13.722656 16.972656 13.785156 16.972656 13.855469 C 16.972656 13.925781 16.960938 13.988281 16.929688 14.042969 C 16.902344 14.097656 16.859375 14.136719 16.800781 14.167969 C 16.742188 14.199219 16.664062 14.214844 16.574219 14.214844 L 16.25 14.214844 L 16.25 14.085938 L 16.570312 14.085938 C 16.632812 14.085938 16.683594 14.074219 16.722656 14.058594 C 16.761719 14.039062 16.789062 14.011719 16.804688 13.980469 C 16.824219 13.945312 16.832031 13.902344 16.832031 13.855469 C 16.832031 13.808594 16.824219 13.765625 16.804688 13.730469 C 16.789062 13.695312 16.761719 13.667969 16.722656 13.648438 C 16.683594 13.628906 16.628906 13.621094 16.566406 13.621094 L 16.316406 13.621094 L 16.316406 14.675781 Z M 16.730469 14.144531 L 17.019531 14.675781 L 16.851562 14.675781 L 16.566406 14.144531 Z M 18.152344 13.492188 L 18.152344 14.675781 L 18.011719 14.675781 L 17.367188 13.746094 L 17.355469 13.746094 L 17.355469 14.675781 L 17.210938 14.675781 L 17.210938 13.492188 L 17.351562 13.492188 L 18 14.425781 L 18.011719 14.425781 L 18.011719 13.492188 Z M 18.832031 13.621094 L 18.832031 13.492188 L 19.71875 13.492188 L 19.71875 13.621094 L 19.347656 13.621094 L 19.347656 14.675781 L 19.203125 14.675781 L 19.203125 13.621094 Z M 19.851562 14.675781 L 19.699219 14.675781 L 20.136719 13.492188 L 20.28125 13.492188 L 20.71875 14.675781 L 20.566406 14.675781 L 20.214844 13.679688 L 20.203125 13.679688 Z M 19.90625 14.214844 L 20.511719 14.214844 L 20.511719 14.34375 L 19.90625 14.34375 Z M 20.902344 14.675781 L 20.902344 13.492188 L 21.046875 13.492188 L 21.046875 14.550781 L 21.597656 14.550781 L 21.597656 14.675781 Z M 21.820312 14.675781 L 21.820312 13.492188 L 21.960938 13.492188 L 21.960938 14.082031 L 21.976562 14.082031 L 22.507812 13.492188 L 22.695312 13.492188 L 22.199219 14.027344 L 22.695312 14.675781 L 22.523438 14.675781 L 22.109375 14.125 L 21.960938 14.292969 L 21.960938 14.675781 Z M 23.023438 13.492188 L 23.023438 14.675781 L 22.878906 14.675781 L 22.878906 13.492188 Z M 24.25 13.492188 L 24.25 14.675781 L 24.109375 14.675781 L 23.464844 13.746094 L 23.453125 13.746094 L 23.453125 14.675781 L 23.308594 14.675781 L 23.308594 13.492188 L 23.449219 13.492188 L 24.097656 14.425781 L 24.109375 14.425781 L 24.109375 13.492188 Z M 25.34375 13.863281 C 25.332031 13.824219 25.316406 13.789062 25.296875 13.757812 C 25.273438 13.726562 25.25 13.699219 25.222656 13.679688 C 25.195312 13.65625 25.160156 13.640625 25.125 13.628906 C 25.089844 13.617188 25.050781 13.609375 25.007812 13.609375 C 24.9375 13.609375 24.875 13.628906 24.816406 13.664062 C 24.757812 13.703125 24.714844 13.753906 24.679688 13.824219 C 24.644531 13.894531 24.628906 13.984375 24.628906 14.085938 C 24.628906 14.1875 24.644531 14.273438 24.679688 14.34375 C 24.714844 14.414062 24.761719 14.46875 24.820312 14.503906 C 24.878906 14.542969 24.945312 14.558594 25.015625 14.558594 C 25.085938 14.558594 25.144531 14.542969 25.195312 14.515625 C 25.25 14.488281 25.289062 14.445312 25.316406 14.390625 C 25.347656 14.339844 25.363281 14.277344 25.363281 14.203125 L 25.40625 14.210938 L 25.050781 14.210938 L 25.050781 14.085938 L 25.5 14.085938 L 25.5 14.210938 C 25.5 14.308594 25.480469 14.394531 25.4375 14.46875 C 25.398438 14.539062 25.339844 14.59375 25.265625 14.632812 C 25.195312 14.671875 25.109375 14.695312 25.015625 14.695312 C 24.910156 14.695312 24.820312 14.667969 24.742188 14.621094 C 24.660156 14.570312 24.601562 14.5 24.554688 14.410156 C 24.511719 14.316406 24.488281 14.210938 24.488281 14.085938 C 24.488281 13.992188 24.503906 13.90625 24.527344 13.832031 C 24.554688 13.757812 24.589844 13.695312 24.636719 13.640625 C 24.679688 13.585938 24.734375 13.546875 24.800781 13.519531 C 24.863281 13.492188 24.933594 13.476562 25.007812 13.476562 C 25.070312 13.476562 25.128906 13.488281 25.183594 13.503906 C 25.238281 13.523438 25.285156 13.550781 25.328125 13.585938 C 25.371094 13.617188 25.40625 13.660156 25.433594 13.707031 C 25.460938 13.753906 25.484375 13.804688 25.492188 13.863281 Z M 25.34375 13.863281 "/>
<path style=" stroke:none;fill-rule:nonzero;fill:rgb(100%,100%,100%);fill-opacity:1;" d="M 11.339844 16.378906 L 11.339844 15.785156 L 11.699219 15.785156 L 11.699219 15.851562 L 11.410156 15.851562 L 11.410156 16.050781 L 11.679688 16.050781 L 11.679688 16.113281 L 11.410156 16.113281 L 11.410156 16.316406 L 11.703125 16.316406 L 11.703125 16.378906 Z M 12.335938 15.785156 L 12.335938 16.378906 L 12.269531 16.378906 L 11.945312 15.914062 L 11.941406 15.914062 L 11.941406 16.378906 L 11.867188 16.378906 L 11.867188 15.785156 L 11.9375 15.785156 L 12.261719 16.253906 L 12.265625 16.253906 L 12.265625 15.785156 Z M 12.925781 15.972656 C 12.917969 15.953125 12.910156 15.933594 12.902344 15.917969 C 12.890625 15.902344 12.878906 15.890625 12.863281 15.878906 C 12.851562 15.867188 12.835938 15.859375 12.816406 15.855469 C 12.796875 15.847656 12.777344 15.847656 12.757812 15.847656 C 12.722656 15.847656 12.691406 15.855469 12.660156 15.875 C 12.632812 15.890625 12.609375 15.917969 12.59375 15.953125 C 12.574219 15.988281 12.566406 16.03125 12.566406 16.082031 C 12.566406 16.132812 12.574219 16.175781 12.59375 16.210938 C 12.609375 16.246094 12.632812 16.273438 12.664062 16.292969 C 12.691406 16.3125 12.726562 16.320312 12.761719 16.320312 C 12.796875 16.320312 12.824219 16.3125 12.851562 16.296875 C 12.878906 16.285156 12.898438 16.261719 12.914062 16.234375 C 12.925781 16.210938 12.933594 16.179688 12.933594 16.140625 L 12.957031 16.148438 L 12.777344 16.148438 L 12.777344 16.082031 L 13.003906 16.082031 L 13.003906 16.148438 C 13.003906 16.195312 12.992188 16.238281 12.972656 16.273438 C 12.953125 16.308594 12.921875 16.335938 12.886719 16.355469 C 12.851562 16.378906 12.808594 16.386719 12.761719 16.386719 C 12.710938 16.386719 12.664062 16.375 12.625 16.351562 C 12.585938 16.324219 12.554688 16.289062 12.53125 16.246094 C 12.507812 16.199219 12.5 16.144531 12.5 16.082031 C 12.5 16.035156 12.503906 15.992188 12.515625 15.957031 C 12.53125 15.917969 12.546875 15.886719 12.570312 15.859375 C 12.59375 15.835938 12.621094 15.8125 12.652344 15.800781 C 12.683594 15.785156 12.71875 15.777344 12.757812 15.777344 C 12.789062 15.777344 12.816406 15.785156 12.84375 15.792969 C 12.871094 15.800781 12.894531 15.816406 12.917969 15.832031 C 12.9375 15.847656 12.957031 15.871094 12.96875 15.894531 C 12.984375 15.917969 12.996094 15.941406 13 15.972656 Z M 13.171875 16.378906 L 13.097656 16.378906 L 13.316406 15.785156 L 13.390625 15.785156 L 13.605469 16.378906 L 13.53125 16.378906 L 13.355469 15.878906 L 13.347656 15.878906 Z M 13.199219 16.148438 L 13.503906 16.148438 L 13.503906 16.210938 L 13.199219 16.210938 Z M 14.117188 15.972656 C 14.109375 15.953125 14.101562 15.933594 14.089844 15.917969 C 14.082031 15.902344 14.070312 15.890625 14.054688 15.878906 C 14.039062 15.867188 14.023438 15.859375 14.007812 15.855469 C 13.988281 15.847656 13.96875 15.847656 13.949219 15.847656 C 13.914062 15.847656 13.878906 15.855469 13.851562 15.875 C 13.824219 15.890625 13.800781 15.917969 13.785156 15.953125 C 13.765625 15.988281 13.757812 16.03125 13.757812 16.082031 C 13.757812 16.132812 13.765625 16.175781 13.785156 16.210938 C 13.800781 16.246094 13.824219 16.273438 13.851562 16.292969 C 13.882812 16.3125 13.914062 16.320312 13.953125 16.320312 C 13.984375 16.320312 14.015625 16.3125 14.042969 16.296875 C 14.066406 16.285156 14.089844 16.261719 14.101562 16.234375 C 14.117188 16.210938 14.125 16.179688 14.125 16.140625 L 14.144531 16.148438 L 13.96875 16.148438 L 13.96875 16.082031 L 14.195312 16.082031 L 14.195312 16.148438 C 14.195312 16.195312 14.183594 16.238281 14.164062 16.273438 C 14.140625 16.308594 14.113281 16.335938 14.078125 16.355469 C 14.039062 16.378906 14 16.386719 13.953125 16.386719 C 13.898438 16.386719 13.855469 16.375 13.8125 16.351562 C 13.773438 16.324219 13.742188 16.289062 13.722656 16.246094 C 13.699219 16.199219 13.6875 16.144531 13.6875 16.082031 C 13.6875 16.035156 13.695312 15.992188 13.707031 15.957031 C 13.71875 15.917969 13.738281 15.886719 13.761719 15.859375 C 13.785156 15.835938 13.8125 15.8125 13.84375 15.800781 C 13.875 15.785156 13.910156 15.777344 13.949219 15.777344 C 13.980469 15.777344 14.007812 15.785156 14.035156 15.792969 C 14.0625 15.800781 14.085938 15.816406 14.109375 15.832031 C 14.128906 15.847656 14.148438 15.871094 14.160156 15.894531 C 14.175781 15.917969 14.183594 15.941406 14.191406 15.972656 Z M 14.355469 16.378906 L 14.355469 15.785156 L 14.714844 15.785156 L 14.714844 15.851562 L 14.429688 15.851562 L 14.429688 16.050781 L 14.695312 16.050781 L 14.695312 16.113281 L 14.429688 16.113281 L 14.429688 16.316406 L 14.71875 16.316406 L 14.71875 16.378906 Z M 14.976562 16.296875 L 14.972656 16.328125 C 14.96875 16.351562 14.964844 16.375 14.957031 16.398438 C 14.949219 16.425781 14.945312 16.449219 14.9375 16.46875 C 14.929688 16.492188 14.925781 16.511719 14.917969 16.523438 L 14.867188 16.523438 C 14.871094 16.511719 14.871094 16.496094 14.878906 16.476562 C 14.882812 16.453125 14.886719 16.433594 14.890625 16.40625 C 14.894531 16.382812 14.898438 16.355469 14.898438 16.332031 L 14.902344 16.296875 Z M 15.421875 16.378906 L 15.421875 15.785156 L 15.78125 15.785156 L 15.78125 15.851562 L 15.496094 15.851562 L 15.496094 16.050781 L 15.761719 16.050781 L 15.761719 16.113281 L 15.496094 16.113281 L 15.496094 16.316406 L 15.785156 16.316406 L 15.785156 16.378906 Z M 15.972656 16.378906 L 15.898438 16.378906 L 16.117188 15.785156 L 16.191406 15.785156 L 16.40625 16.378906 L 16.332031 16.378906 L 16.15625 15.878906 L 16.152344 15.878906 Z M 16.003906 16.148438 L 16.304688 16.148438 L 16.304688 16.210938 L 16.003906 16.210938 Z M 16.542969 16.378906 L 16.542969 15.785156 L 16.742188 15.785156 C 16.789062 15.785156 16.824219 15.792969 16.855469 15.808594 C 16.886719 15.828125 16.90625 15.847656 16.921875 15.875 C 16.933594 15.902344 16.941406 15.933594 16.941406 15.96875 C 16.941406 16.003906 16.933594 16.035156 16.921875 16.0625 C 16.90625 16.089844 16.886719 16.109375 16.855469 16.125 C 16.824219 16.140625 16.789062 16.148438 16.742188 16.148438 L 16.582031 16.148438 L 16.582031 16.082031 L 16.738281 16.082031 C 16.773438 16.082031 16.796875 16.078125 16.816406 16.070312 C 16.835938 16.058594 16.851562 16.046875 16.859375 16.03125 C 16.867188 16.011719 16.871094 15.992188 16.871094 15.96875 C 16.871094 15.945312 16.867188 15.925781 16.859375 15.90625 C 16.851562 15.886719 16.835938 15.875 16.816406 15.863281 C 16.796875 15.855469 16.769531 15.851562 16.738281 15.851562 L 16.613281 15.851562 L 16.613281 16.378906 Z M 16.820312 16.113281 L 16.964844 16.378906 L 16.882812 16.378906 L 16.738281 16.113281 Z M 17.570312 15.785156 L 17.570312 16.378906 L 17.503906 16.378906 L 17.179688 15.914062 L 17.175781 15.914062 L 17.175781 16.378906 L 17.101562 16.378906 L 17.101562 15.785156 L 17.171875 15.785156 L 17.496094 16.253906 L 17.5 16.253906 L 17.5 15.785156 Z M 17.847656 16.296875 L 17.84375 16.328125 C 17.839844 16.351562 17.835938 16.375 17.828125 16.398438 C 17.820312 16.425781 17.816406 16.449219 17.808594 16.46875 C 17.800781 16.492188 17.796875 16.511719 17.789062 16.523438 L 17.738281 16.523438 C 17.742188 16.511719 17.746094 16.496094 17.75 16.476562 C 17.753906 16.453125 17.757812 16.433594 17.761719 16.40625 C 17.765625 16.382812 17.769531 16.355469 17.769531 16.332031 L 17.773438 16.296875 Z M 18.292969 16.378906 L 18.292969 15.785156 L 18.652344 15.785156 L 18.652344 15.851562 L 18.367188 15.851562 L 18.367188 16.050781 L 18.632812 16.050781 L 18.632812 16.113281 L 18.367188 16.113281 L 18.367188 16.316406 L 18.65625 16.316406 L 18.65625 16.378906 Z M 18.820312 15.785156 L 18.90625 15.785156 L 19.109375 16.277344 L 19.113281 16.277344 L 19.316406 15.785156 L 19.402344 15.785156 L 19.402344 16.378906 L 19.335938 16.378906 L 19.335938 15.929688 L 19.328125 15.929688 L 19.144531 16.378906 L 19.078125 16.378906 L 18.894531 15.929688 L 18.886719 15.929688 L 18.886719 16.378906 L 18.820312 16.378906 Z M 19.585938 16.378906 L 19.585938 15.785156 L 19.785156 15.785156 C 19.832031 15.785156 19.871094 15.796875 19.898438 15.8125 C 19.929688 15.828125 19.953125 15.851562 19.964844 15.878906 C 19.980469 15.90625 19.988281 15.9375 19.988281 15.972656 C 19.988281 16.007812 19.980469 16.039062 19.964844 16.070312 C 19.953125 16.097656 19.929688 16.121094 19.902344 16.136719 C 19.871094 16.152344 19.832031 16.164062 19.789062 16.164062 L 19.644531 16.164062 L 19.644531 16.097656 L 19.785156 16.097656 C 19.816406 16.097656 19.84375 16.09375 19.863281 16.082031 C 19.878906 16.070312 19.894531 16.058594 19.902344 16.039062 C 19.914062 16.019531 19.917969 15.996094 19.917969 15.972656 C 19.917969 15.949219 19.914062 15.929688 19.902344 15.910156 C 19.894531 15.890625 19.878906 15.878906 19.859375 15.867188 C 19.839844 15.855469 19.816406 15.851562 19.785156 15.851562 L 19.65625 15.851562 L 19.65625 16.378906 Z M 20.644531 16.082031 C 20.644531 16.144531 20.632812 16.199219 20.609375 16.246094 C 20.585938 16.289062 20.554688 16.324219 20.515625 16.351562 C 20.476562 16.375 20.433594 16.386719 20.382812 16.386719 C 20.332031 16.386719 20.285156 16.375 20.246094 16.351562 C 20.207031 16.324219 20.175781 16.289062 20.15625 16.246094 C 20.132812 16.199219 20.121094 16.144531 20.121094 16.082031 C 20.121094 16.019531 20.132812 15.964844 20.15625 15.921875 C 20.175781 15.875 20.207031 15.839844 20.246094 15.816406 C 20.285156 15.792969 20.332031 15.777344 20.382812 15.777344 C 20.433594 15.777344 20.476562 15.792969 20.515625 15.816406 C 20.554688 15.839844 20.585938 15.875 20.609375 15.921875 C 20.632812 15.964844 20.644531 16.019531 20.644531 16.082031 Z M 20.574219 16.082031 C 20.574219 16.03125 20.566406 15.988281 20.546875 15.953125 C 20.53125 15.917969 20.507812 15.890625 20.480469 15.875 C 20.449219 15.855469 20.417969 15.847656 20.382812 15.847656 C 20.347656 15.847656 20.3125 15.855469 20.285156 15.875 C 20.253906 15.890625 20.234375 15.917969 20.214844 15.953125 C 20.199219 15.988281 20.191406 16.03125 20.191406 16.082031 C 20.191406 16.132812 20.199219 16.175781 20.214844 16.210938 C 20.234375 16.246094 20.253906 16.273438 20.285156 16.292969 C 20.3125 16.3125 20.347656 16.320312 20.382812 16.320312 C 20.417969 16.320312 20.449219 16.3125 20.480469 16.292969 C 20.507812 16.273438 20.53125 16.246094 20.546875 16.210938 C 20.566406 16.175781 20.574219 16.132812 20.574219 16.082031 Z M 20.910156 16.378906 L 20.75 15.785156 L 20.824219 15.785156 L 20.945312 16.269531 L 20.953125 16.269531 L 21.078125 15.785156 L 21.160156 15.785156 L 21.285156 16.269531 L 21.289062 16.269531 L 21.414062 15.785156 L 21.488281 15.785156 L 21.324219 16.378906 L 21.25 16.378906 L 21.121094 15.90625 L 21.117188 15.90625 L 20.984375 16.378906 Z M 21.617188 16.378906 L 21.617188 15.785156 L 21.972656 15.785156 L 21.972656 15.851562 L 21.6875 15.851562 L 21.6875 16.050781 L 21.957031 16.050781 L 21.957031 16.113281 L 21.6875 16.113281 L 21.6875 16.316406 L 21.980469 16.316406 L 21.980469 16.378906 Z M 22.144531 16.378906 L 22.144531 15.785156 L 22.34375 15.785156 C 22.390625 15.785156 22.429688 15.792969 22.457031 15.808594 C 22.488281 15.828125 22.511719 15.847656 22.523438 15.875 C 22.539062 15.902344 22.546875 15.933594 22.546875 15.96875 C 22.546875 16.003906 22.539062 16.035156 22.523438 16.0625 C 22.511719 16.089844 22.488281 16.109375 22.457031 16.125 C 22.429688 16.140625 22.390625 16.148438 22.347656 16.148438 L 22.183594 16.148438 L 22.183594 16.082031 L 22.34375 16.082031 C 22.375 16.082031 22.402344 16.078125 22.421875 16.070312 C 22.4375 16.058594 22.453125 16.046875 22.460938 16.03125 C 22.472656 16.011719 22.476562 15.992188 22.476562 15.96875 C 22.476562 15.945312 22.472656 15.925781 22.460938 15.90625 C 22.453125 15.886719 22.4375 15.875 22.417969 15.863281 C 22.398438 15.855469 22.375 15.851562 22.34375 15.851562 L 22.214844 15.851562 L 22.214844 16.378906 Z M 22.421875 16.113281 L 22.570312 16.378906 L 22.484375 16.378906 L 22.34375 16.113281 Z M 22.421875 16.113281 "/>
</g>
</svg>
