<svg id="SvgjsSvg1001" width="288" height="288" xmlns="http://www.w3.org/2000/svg" version="1.1" xmlns:xlink="http://www.w3.org/1999/xlink" xmlns:svgjs="http://svgjs.com/svgjs"><defs id="SvgjsDefs1002"></defs><g id="SvgjsG1008"><svg xmlns="http://www.w3.org/2000/svg" viewBox="0 0 1000 1000" width="288" height="288"><g><g fill="#e81414" transform="matrix(.5653 0 0 .5653 3.478 -19.522)" class="color6f6b6b svgShape"><path d="M801.8045936483734 1000.4627640918292C715.4045936483733 1000.4627640918292 636.7045936483734 1033.4627640918293 577.4045936483733 1087.5627640918292C518.1045936483733 1033.5627640918292 439.3045936483734 1000.4627640918292 353.0045936483734 1000.4627640918292L335.40459364837335 1000.4627640918292L335.40459364837335 1351.662764091829L401.8045936483734 1351.662764091829L415.40459364837335 1351.662764091829L503.20459364837336 1351.662764091829L503.20459364837336 1334.0627640918292C503.20459364837336 1298.662764091829 509.5045936483733 1264.662764091829 520.8045936483734 1233.162764091829C541.7045936483734 1269.7627640918292 555.7045936483734 1305.8627640918291 555.7045936483734 1350.5627640918292L563.8045936483734 1350.5627640918292L590.8045936483734 1350.5627640918292L598.9045936483733 1350.5627640918292C598.9045936483733 1303.7627640918292 609.6045936483733 1266.162764091829 632.1045936483733 1228.5627640918292C644.5045936483734 1261.3627640918291 651.4045936483733 1296.8627640918291 651.4045936483733 1333.9627640918293L651.4045936483733 1351.662764091829L712.6045936483733 1351.662764091829L730.2045936483734 1351.662764091829L819.4045936483733 1351.662764091829L819.4045936483733 1000.4627640918292L801.8045936483734 1000.4627640918292ZM784.3045936483734 1036.0627640918292L784.3045936483734 1079.4627640918293C771.8045936483734 1082.162764091829 759.6045936483733 1085.7627640918292 747.9045936483733 1090.0627640918292L747.9045936483733 1040.4627640918293C759.8045936483734 1038.2627640918292 771.9045936483733 1036.7627640918292 784.3045936483734 1036.0627640918292ZM712.7045936483734 1105.662764091829C684.9045936483733 1120.3627640918291 660.0045936483734 1139.5627640918292 638.7045936483734 1162.162764091829C628.0045936483734 1144.4627640918293 615.7045936483734 1127.8627640918291 602.0045936483734 1112.4627640918293C633.5045936483734 1084.0627640918292 671.2045936483734 1062.162764091829 712.6045936483733 1049.162764091829L712.6045936483733 1105.662764091829ZM436.90459364837335 1105.162764091829L436.90459364837335 1047.662764091829C480.40459364837335 1060.4627640918293 519.9045936483733 1082.8627640918291 552.7045936483734 1112.4627640918293C538.3045936483734 1128.662764091829 525.4045936483733 1146.162764091829 514.3045936483734 1164.9627640918293C492.3045936483734 1140.8627640918291 466.20459364837336 1120.5627640918292 436.90459364837335 1105.162764091829ZM401.8045936483734 1039.5627640918292L401.8045936483734 1089.662764091829C391.70459364837336 1085.9627640918293 381.3045936483734 1082.8627640918291 370.60459364837334 1080.3627640918291L370.60459364837334 1036.0627640918292C381.10459364837334 1036.662764091829 391.5045936483733 1037.8627640918291 401.8045936483734 1039.5627640918292ZM370.5045936483734 1316.5627640918292L370.5045936483734 1116.5627640918292C381.20459364837336 1119.4627640918293 391.70459364837336 1123.0627640918292 401.70459364837336 1127.3627640918291L401.70459364837336 1316.5627640918292L370.5045936483734 1316.5627640918292ZM468.60459364837334 1316.5627640918292L436.90459364837335 1316.5627640918292L436.90459364837335 1145.7627640918292C459.8045936483734 1160.0627640918292 480.0045936483733 1177.9627640918293 497.0045936483733 1198.662764091829C480.70459364837336 1234.9627640918293 470.70459364837336 1274.7627640918292 468.60459364837334 1316.5627640918292ZM575.3045936483734 1270.162764091829C566.6045936483733 1243.0627640918292 554.0045936483733 1217.5627640918292 538.0045936483733 1194.5627640918292C548.9045936483733 1173.9627640918293 562.2045936483734 1154.8627640918291 577.4045936483733 1137.4627640918293C591.8045936483734 1153.8627640918291 604.4045936483733 1171.8627640918291 615.0045936483734 1191.162764091829C597.8045936483734 1214.9627640918293 584.4045936483733 1241.5627640918292 575.3045936483734 1270.162764091829ZM686.2045936483734 1316.5627640918292C684.0045936483734 1273.4627640918293 673.4045936483733 1232.4627640918293 656.3045936483734 1195.162764091829C672.5045936483734 1176.162764091829 691.5045936483734 1159.5627640918292 712.7045936483734 1146.162764091829L712.7045936483734 1316.5627640918292L686.2045936483734 1316.5627640918292ZM747.8045936483734 1316.5627640918292L747.8045936483734 1127.7627640918292C759.5045936483734 1122.7627640918292 771.6045936483733 1118.5627640918292 784.2045936483734 1115.3627640918291L784.2045936483734 1316.4627640918293L747.8045936483734 1316.4627640918293Z " transform="matrix(.76724 0 0 .76724 1.862 16.712)"></path></g><g transform="matrix(.5653 0 0 .5653 236.007 -19.522)"><path fill="#1520e2" d="M259.6522882718837 759.3976751525527L269.74319736278375 759.3976751525527L293.4704700900637 817.3522206070926L294.28865190824376 817.3522206070926L318.0159246355137 759.3976751525527L328.1068337264237 759.3976751525527L328.1068337264237 829.2158569707326L320.19774281733373 829.2158569707326L320.19774281733373 776.1704024252826L319.5159246355137 776.1704024252826L297.69774281733373 829.2158569707326L290.06137918097374 829.2158569707326L268.24319736278375 776.1704024252826L267.56137918097374 776.1704024252826L267.56137918097374 829.2158569707326L259.6522882718837 829.2158569707326L259.6522882718837 759.3976751525527ZM403.92501554460375 794.3067660616426C403.92501554460375 801.6704024252826 402.5954700900637 808.0340387889127 399.93637918097374 813.3976751525526C397.2772882718837 818.7613115161826 393.62956099915374 822.8976751525526 388.99319736278375 825.8067660616426C384.3568337264237 828.7158569707326 379.06137918097374 830.1704024252826 373.1068337264237 830.1704024252826C367.1522882718837 830.1704024252826 361.8568337264237 828.7158569707326 357.2204700900637 825.8067660616426C352.5841064536937 822.8976751525526 348.93637918097374 818.7613115161826 346.2772882718837 813.3976751525526C343.61819736278375 808.0340387889127 342.28865190824376 801.6704024252826 342.28865190824376 794.3067660616426C342.28865190824376 786.9431296980026 343.61819736278375 780.5794933343726 346.2772882718837 775.2158569707326C348.93637918097374 769.8522206070926 352.5841064536937 765.7158569707326 357.2204700900637 762.8067660616426C361.8568337264237 759.8976751525527 367.1522882718837 758.4431296980026 373.1068337264237 758.4431296980026C379.06137918097374 758.4431296980026 384.3568337264237 759.8976751525527 388.99319736278375 762.8067660616426C393.62956099915374 765.7158569707326 397.2772882718837 769.8522206070926 399.93637918097374 775.2158569707326C402.5954700900637 780.5794933343726 403.92501554460375 786.9431296980026 403.92501554460375 794.3067660616426ZM395.74319736278375 794.3067660616426C395.74319736278375 788.2613115161826 394.73751554460375 783.1590387889127 392.72615190824376 778.9999478798226C390.7147882718837 774.8408569707326 387.99887918097374 771.6931296980026 384.5784246355137 769.5567660616426C381.1579700900637 767.4204024252826 377.3341064536937 766.3522206070926 373.1068337264237 766.3522206070926C368.87956099915374 766.3522206070926 365.05569736278375 767.4204024252826 361.63524281733373 769.5567660616426C358.2147882718837 771.6931296980026 355.49887918097374 774.8408569707326 353.48751554460375 778.9999478798226C351.47615190824376 783.1590387889127 350.4704700900637 788.2613115161826 350.4704700900637 794.3067660616426C350.4704700900637 800.3522206070926 351.47615190824376 805.4544933343726 353.48751554460375 809.6135842434626C355.49887918097374 813.7726751525526 358.2147882718837 816.9204024252826 361.63524281733373 819.0567660616426C365.05569736278375 821.1931296980026 368.87956099915374 822.2613115161826 373.1068337264237 822.2613115161826C377.3341064536937 822.2613115161826 381.1579700900637 821.1931296980026 384.5784246355137 819.0567660616426C387.99887918097374 816.9204024252826 390.7147882718837 813.7726751525526 392.72615190824376 809.6135842434626C394.73751554460375 805.4544933343726 395.74319736278375 800.3522206070926 395.74319736278375 794.3067660616426ZM439.6522882718837 829.2158569707326L418.1068337264237 829.2158569707326L418.1068337264237 759.3976751525527L440.6068337264237 759.3976751525527C447.37956099915374 759.3976751525527 453.17501554460375 760.7897206070926 457.99319736278375 763.5738115161826C462.81137918097374 766.3579024252826 466.50456099915374 770.3465387889127 469.07274281733373 775.5397206070926C471.6409246355137 780.7329024252826 472.92501554460375 786.9431296980026 472.92501554460375 794.1704024252826C472.92501554460375 801.4431296980026 471.62956099915374 807.6988115161826 469.03865190824376 812.9374478798226C466.44774281733373 818.1760842434626 462.67501554460375 822.1988115161826 457.7204700900637 825.0056296980026C452.7659246355137 827.8124478798226 446.74319736278375 829.2158569707326 439.6522882718837 829.2158569707326ZM426.56137918097374 821.7158569707326L439.1068337264237 821.7158569707326C444.87956099915374 821.7158569707326 449.66365190824376 820.6022206070926 453.4591064536937 818.3749478798226C457.25456099915374 816.1476751525526 460.0841064536937 812.9772206070926 461.94774281733373 808.8635842434626C463.81137918097374 804.7499478798226 464.74319736278375 799.8522206070926 464.74319736278375 794.1704024252826C464.74319736278375 788.5340387889127 463.82274281733373 783.6760842434626 461.9818337264237 779.5965387889127C460.1409246355137 775.5169933343726 457.3909246355137 772.3806296980026 453.7318337264237 770.1874478798226C450.07274281733373 767.9942660616426 445.5159246355137 766.8976751525526 440.06137918097374 766.8976751525526L426.56137918097374 766.8976751525526L426.56137918097374 821.7158569707326ZM487.1068337264237 829.2158569707326L487.1068337264237 759.3976751525527L529.2431973627838 759.3976751525527L529.2431973627838 766.8976751525526L495.56137918097374 766.8976751525526L495.56137918097374 790.4885842434626L527.0613791809737 790.4885842434626L527.0613791809737 797.9885842434626L495.56137918097374 797.9885842434626L495.56137918097374 821.7158569707326L529.7886519082438 821.7158569707326L529.7886519082438 829.2158569707326L487.1068337264237 829.2158569707326ZM544.5159246355138 829.2158569707326L544.5159246355138 759.3976751525527L568.1068337264237 759.3976751525527C573.5613791809737 759.3976751525527 578.0386519082438 760.3238115161826 581.5386519082438 762.1760842434626C585.0386519082438 764.0283569707326 587.6295609991537 766.5681296980026 589.3113791809737 769.7954024252826C590.9931973627838 773.0226751525526 591.8341064536937 776.6931296980026 591.8341064536937 780.8067660616426C591.8341064536937 784.9204024252826 590.9931973627838 788.5681296980026 589.3113791809737 791.7499478798226C587.6295609991537 794.9317660616426 585.0500155446038 797.4260842434626 581.5727428173337 799.2329024252826C578.0954700900637 801.0397206070926 573.6522882718837 801.9431296980026 568.2431973627838 801.9431296980026L549.1522882718837 801.9431296980026L549.1522882718837 794.3067660616426L567.9704700900637 794.3067660616426C571.6977428173337 794.3067660616426 574.7034246355138 793.7613115161826 576.9875155446038 792.6704024252826C579.2716064536937 791.5794933343726 580.9306973627838 790.0283569707326 581.9647882718837 788.0169933343726C582.9988791809737 786.0056296980026 583.5159246355138 783.6022206070926 583.5159246355138 780.8067660616426C583.5159246355138 778.0113115161826 582.9931973627838 775.5681296980026 581.9477428173337 773.4772206070926C580.9022882718837 771.3863115161826 579.2318337264237 769.7669933343726 576.9363791809737 768.6192660616426C574.6409246355138 767.4715387889127 571.6068337264237 766.8976751525526 567.8341064536937 766.8976751525526L552.9704700900637 766.8976751525526L552.9704700900637 829.2158569707326L544.5159246355138 829.2158569707326ZM577.3795609991537 797.8522206070926L594.5613791809737 829.2158569707326L584.7431973627838 829.2158569707326L567.8341064536937 797.8522206070926L577.3795609991537 797.8522206070926ZM661.2431973627838 759.3976751525527L661.2431973627838 829.2158569707326L653.0613791809737 829.2158569707326L615.0159246355138 774.3976751525526L614.3341064536937 774.3976751525526L614.3341064536937 829.2158569707326L605.8795609991537 829.2158569707326L605.8795609991537 759.3976751525527L614.0613791809737 759.3976751525527L652.2431973627838 814.3522206070926L652.9250155446038 814.3522206070926L652.9250155446038 759.3976751525527L661.2431973627838 759.3976751525527ZM701.3341064536937 766.8976751525526L701.3341064536937 759.3976751525527L753.6977428173337 759.3976751525527L753.6977428173337 766.8976751525526L731.7431973627838 766.8976751525526L731.7431973627838 829.2158569707326L723.2886519082438 829.2158569707326L723.2886519082438 766.8976751525526L701.3341064536937 766.8976751525526ZM761.4704700900637 829.2158569707326L752.6068337264237 829.2158569707326L778.2431973627837 759.3976751525527L786.9704700900637 759.3976751525527L812.6068337264237 829.2158569707326L803.7431973627837 829.2158569707326L782.8795609991537 770.4431296980026L782.3341064536937 770.4431296980026L761.4704700900637 829.2158569707326ZM764.7431973627837 801.9431296980026L800.4704700900637 801.9431296980026L800.4704700900637 809.4431296980026L764.7431973627837 809.4431296980026L764.7431973627837 801.9431296980026ZM823.5159246355138 829.2158569707326L823.5159246355138 759.3976751525527L831.9704700900637 759.3976751525527L831.9704700900637 821.7158569707326L864.4250155446038 821.7158569707326L864.4250155446038 829.2158569707326L823.5159246355138 829.2158569707326ZM877.5159246355138 829.2158569707326L877.5159246355138 759.3976751525527L885.9704700900637 759.3976751525527L885.9704700900637 794.0340387889127L886.7886519082438 794.0340387889127L918.1522882718838 759.3976751525527L929.1977428173337 759.3976751525527L899.8795609991537 790.8976751525526L929.1977428173337 829.2158569707326L918.9704700900637 829.2158569707326L894.6977428173337 796.7613115161826L885.9704700900637 806.5794933343726L885.9704700900637 829.2158569707326L877.5159246355138 829.2158569707326ZM948.5613791809737 759.3976751525527L948.5613791809737 829.2158569707326L940.1068337264237 829.2158569707326L940.1068337264237 759.3976751525527L948.5613791809737 759.3976751525527ZM1020.8341064536937 759.3976751525527L1020.8341064536937 829.2158569707326L1012.6522882718838 829.2158569707326L974.6068337264237 774.3976751525526L973.9250155446038 774.3976751525526L973.9250155446038 829.2158569707326L965.4704700900637 829.2158569707326L965.4704700900637 759.3976751525527L973.6522882718838 759.3976751525527L1011.8341064536937 814.3522206070926L1012.5159246355138 814.3522206070926L1012.5159246355138 759.3976751525527L1020.8341064536937 759.3976751525527ZM1085.4704700900638 781.2158569707326C1084.7204700900638 778.9204024252826 1083.7375155446039 776.8579024252826 1082.5216064536937 775.0283569707326C1081.3056973627836 773.1988115161826 1079.8625155446039 771.6363115161826 1078.1920609991537 770.3408569707326C1076.5216064536937 769.0454024252826 1074.6295609991537 768.0567660616426 1072.5159246355138 767.3749478798226C1070.4022882718837 766.6931296980026 1068.0841064536937 766.3522206070926 1065.5613791809737 766.3522206070926C1061.4250155446039 766.3522206070926 1057.6636519082438 767.4204024252826 1054.2772882718837 769.5567660616426C1050.8909246355138 771.6931296980026 1048.1977428173336 774.8408569707326 1046.1977428173336 778.9999478798226C1044.1977428173336 783.1590387889127 1043.1977428173336 788.2613115161826 1043.1977428173336 794.3067660616426C1043.1977428173336 800.3522206070926 1044.2091064536937 805.4544933343726 1046.2318337264237 809.6135842434626C1048.2545609991537 813.7726751525526 1050.9931973627836 816.9204024252826 1054.4477428173336 819.0567660616426C1057.9022882718837 821.1931296980026 1061.7886519082438 822.2613115161826 1066.1068337264237 822.2613115161826C1070.1068337264237 822.2613115161826 1073.6352428173336 821.4033569707326 1076.6920609991537 819.6874478798226C1079.7488791809737 817.9715387889127 1082.1352428173336 815.5397206070926 1083.8511519082438 812.3919933343726C1085.5670609991537 809.2442660616426 1086.4250155446039 805.5340387889127 1086.4250155446039 801.2613115161826L1089.0159246355138 801.8067660616426L1068.0159246355138 801.8067660616426L1068.0159246355138 794.3067660616426L1094.6068337264237 794.3067660616426L1094.6068337264237 801.8067660616426C1094.6068337264237 807.5567660616426 1093.3852428173336 812.5567660616426 1090.9420609991537 816.8067660616426C1088.4988791809737 821.0567660616426 1085.1352428173336 824.3465387889127 1080.8511519082438 826.6760842434626C1076.5670609991537 829.0056296980026 1071.6522882718837 830.1704024252826 1066.1068337264237 830.1704024252826C1059.9250155446039 830.1704024252826 1054.4988791809737 828.7158569707326 1049.8284246355138 825.8067660616426C1045.1579700900638 822.8976751525526 1041.5216064536937 818.7613115161826 1038.9193337264237 813.3976751525526C1036.3170609991537 808.0340387889127 1035.0159246355138 801.6704024252826 1035.0159246355138 794.3067660616426C1035.0159246355138 788.7840387889127 1035.7602428173336 783.8124478798226 1037.2488791809737 779.3919933343726C1038.7375155446039 774.9715387889127 1040.8454700900638 771.2044933343726 1043.5727428173336 768.0908569707326C1046.3000155446039 764.9772206070926 1049.5272882718837 762.5908569707326 1053.2545609991537 760.9317660616426C1056.9818337264237 759.2726751525527 1061.0841064536937 758.4431296980026 1065.5613791809737 758.4431296980026C1069.2431973627836 758.4431296980026 1072.6806973627836 758.9942660616426 1075.8738791809737 760.0965387889125C1079.0670609991537 761.1988115161826 1081.9193337264237 762.7556296980026 1084.4306973627836 764.7669933343726C1086.9420609991537 766.7783569707326 1089.0386519082438 769.1760842434626 1090.7204700900638 771.9601751525526C1092.4022882718837 774.7442660616426 1093.5613791809737 777.8294933343726 1094.1977428173336 781.2158569707326L1085.4704700900638 781.2158569707326Z " transform="translate(-8.455 70.773)" class="color404040 svgShape"></path><path fill="#1520e2" d="M510.8500759119249 1658.4316834238798L510.8500759119249 1588.6135016056999L552.9864395482849 1588.6135016056999L552.9864395482849 1596.1135016056999L519.3046213664649 1596.1135016056999L519.3046213664649 1619.7044106966098L550.8046213664649 1619.7044106966098L550.8046213664649 1627.2044106966098L519.3046213664649 1627.2044106966098L519.3046213664649 1650.9316834238798L553.5318940937349 1650.9316834238798L553.5318940937349 1658.4316834238798L510.8500759119249 1658.4316834238798ZM628.4228031846449 1588.6135016056999L628.4228031846449 1658.4316834238798L620.2409850028249 1658.4316834238798L582.1955304573748 1603.6135016056999L581.5137122755549 1603.6135016056999L581.5137122755549 1658.4316834238798L573.0591668210149 1658.4316834238798L573.0591668210149 1588.6135016056999L581.2409850028249 1588.6135016056999L619.4228031846449 1643.56804706024L620.1046213664649 1643.56804706024L620.1046213664649 1588.6135016056999L628.4228031846449 1588.6135016056999ZM697.8591668210149 1610.4316834238798C697.1091668210149 1608.1362288784298 696.1262122755548 1606.0737288784298 694.9103031846449 1604.2441834238798C693.6943940937349 1602.4146379693298 692.2512122755548 1600.8521379693298 690.5807577301049 1599.5566834238798C688.9103031846449 1598.2612288784298 687.0182577301049 1597.2725925147897 684.9046213664649 1596.5907743329699C682.7909850028249 1595.9089561511498 680.4728031846449 1595.56804706024 677.9500759119248 1595.56804706024C673.8137122755548 1595.56804706024 670.0523486391949 1596.6362288784298 666.6659850028249 1598.7725925147897C663.2796213664649 1600.9089561511498 660.586439548285 1604.0566834238798 658.586439548285 1608.2157743329699C656.586439548285 1612.3748652420597 655.586439548285 1617.4771379693298 655.586439548285 1623.5225925147897C655.586439548285 1629.56804706024 656.5978031846449 1634.6703197875197 658.6205304573749 1638.8294106966098C660.6432577301049 1642.9885016056999 663.3818940937349 1646.1362288784298 666.836439548285 1648.2725925147897C670.2909850028249 1650.4089561511498 674.1773486391949 1651.4771379693298 678.4955304573749 1651.4771379693298C682.4955304573749 1651.4771379693298 686.023939548285 1650.6191834238798 689.0807577301049 1648.9032743329699C692.1375759119248 1647.1873652420597 694.523939548285 1644.75554706024 696.2398486391949 1641.6078197875197C697.9557577301049 1638.4600925147897 698.8137122755548 1634.7498652420597 698.8137122755548 1630.4771379693298L701.4046213664649 1631.0225925147897L680.4046213664649 1631.0225925147897L680.4046213664649 1623.5225925147897L706.9955304573749 1623.5225925147897L706.9955304573749 1631.0225925147897C706.9955304573749 1636.7725925147897 705.773939548285 1641.7725925147897 703.3307577301049 1646.0225925147897C700.8875759119248 1650.2725925147897 697.523939548285 1653.5623652420597 693.2398486391949 1655.8919106966098C688.9557577301049 1658.2214561511498 684.0409850028249 1659.3862288784298 678.4955304573749 1659.3862288784298C672.3137122755548 1659.3862288784298 666.8875759119248 1657.9316834238798 662.2171213664649 1655.0225925147897C657.5466668210149 1652.1135016056999 653.9103031846449 1647.9771379693298 651.3080304573749 1642.6135016056999C648.7057577301049 1637.2498652420597 647.4046213664649 1630.8862288784298 647.4046213664649 1623.5225925147897C647.4046213664649 1617.9998652420597 648.148939548285 1613.0282743329699 649.6375759119248 1608.6078197875197C651.1262122755548 1604.1873652420597 653.2341668210149 1600.4203197875197 655.961439548285 1597.3066834238798C658.6887122755548 1594.19304706024 661.9159850028249 1591.8066834238798 665.6432577301049 1590.1475925147897C669.3705304573749 1588.4885016056999 673.4728031846449 1587.6589561511498 677.9500759119248 1587.6589561511498C681.6318940937349 1587.6589561511498 685.0693940937349 1588.2100925147897 688.2625759119248 1589.3123652420597C691.4557577301049 1590.4146379693298 694.3080304573749 1591.9714561511498 696.8193940937349 1593.9828197875197C699.3307577301049 1595.9941834238798 701.4273486391949 1598.3919106966098 703.1091668210149 1601.1760016056999C704.7909850028249 1603.9600925147897 705.9500759119248 1607.0453197875197 706.586439548285 1610.4316834238798L697.8591668210149 1610.4316834238798ZM726.9318940937349 1658.4316834238798L718.0682577301048 1658.4316834238798L743.7046213664648 1588.6135016056999L752.4318940937349 1588.6135016056999L778.068257730105 1658.4316834238798L769.2046213664648 1658.4316834238798L748.3409850028249 1599.6589561511498L747.7955304573749 1599.6589561511498L726.9318940937349 1658.4316834238798ZM730.2046213664648 1631.1589561511498L765.9318940937349 1631.1589561511498L765.9318940937349 1638.6589561511498L730.2046213664648 1638.6589561511498L730.2046213664648 1631.1589561511498ZM838.2318940937348 1610.4316834238798C837.4818940937348 1608.1362288784298 836.4989395482849 1606.0737288784298 835.2830304573749 1604.2441834238798C834.0671213664649 1602.4146379693298 832.6239395482849 1600.8521379693298 830.9534850028249 1599.5566834238798C829.2830304573749 1598.2612288784298 827.3909850028249 1597.2725925147897 825.2773486391949 1596.5907743329699C823.1637122755549 1595.9089561511498 820.8455304573749 1595.56804706024 818.322803184645 1595.56804706024C814.1864395482849 1595.56804706024 810.4250759119249 1596.6362288784298 807.0387122755549 1598.7725925147897C803.6523486391949 1600.9089561511498 800.9591668210148 1604.0566834238798 798.9591668210148 1608.2157743329699C796.9591668210148 1612.3748652420597 795.9591668210148 1617.4771379693298 795.9591668210148 1623.5225925147897C795.9591668210148 1629.56804706024 796.9705304573749 1634.6703197875197 798.9932577301049 1638.8294106966098C801.0159850028249 1642.9885016056999 803.7546213664649 1646.1362288784298 807.2091668210148 1648.2725925147897C810.6637122755549 1650.4089561511498 814.5500759119249 1651.4771379693298 818.8682577301049 1651.4771379693298C822.8682577301049 1651.4771379693298 826.3966668210148 1650.6191834238798 829.4534850028249 1648.9032743329699C832.510303184645 1647.1873652420597 834.8966668210148 1644.75554706024 836.6125759119249 1641.6078197875197C838.3284850028249 1638.4600925147897 839.1864395482849 1634.7498652420597 839.1864395482849 1630.4771379693298L841.7773486391949 1631.0225925147897L820.7773486391949 1631.0225925147897L820.7773486391949 1623.5225925147897L847.3682577301049 1623.5225925147897L847.3682577301049 1631.0225925147897C847.3682577301049 1636.7725925147897 846.1466668210148 1641.7725925147897 843.7034850028249 1646.0225925147897C841.260303184645 1650.2725925147897 837.8966668210148 1653.5623652420597 833.6125759119249 1655.8919106966098C829.3284850028249 1658.2214561511498 824.4137122755549 1659.3862288784298 818.8682577301049 1659.3862288784298C812.6864395482849 1659.3862288784298 807.260303184645 1657.9316834238798 802.5898486391949 1655.0225925147897C797.9193940937348 1652.1135016056999 794.2830304573749 1647.9771379693298 791.6807577301049 1642.6135016056999C789.0784850028249 1637.2498652420597 787.7773486391949 1630.8862288784298 787.7773486391949 1623.5225925147897C787.7773486391949 1617.9998652420597 788.5216668210148 1613.0282743329699 790.010303184645 1608.6078197875197C791.4989395482849 1604.1873652420597 793.6068940937348 1600.4203197875197 796.3341668210148 1597.3066834238798C799.0614395482849 1594.19304706024 802.2887122755549 1591.8066834238798 806.0159850028249 1590.1475925147897C809.7432577301049 1588.4885016056999 813.8455304573749 1587.6589561511498 818.322803184645 1587.6589561511498C822.0046213664649 1587.6589561511498 825.4421213664649 1588.2100925147897 828.635303184645 1589.3123652420597C831.8284850028249 1590.4146379693298 834.6807577301049 1591.9714561511498 837.1921213664649 1593.9828197875197C839.7034850028249 1595.9941834238798 841.8000759119249 1598.3919106966098 843.4818940937348 1601.1760016056999C845.1637122755549 1603.9600925147897 846.322803184645 1607.0453197875197 846.9591668210148 1610.4316834238798L838.2318940937348 1610.4316834238798ZM866.6228031846449 1658.4316834238798L866.6228031846449 1588.6135016056999L908.7591668210149 1588.6135016056999L908.7591668210149 1596.1135016056999L875.077348639195 1596.1135016056999L875.077348639195 1619.7044106966098L906.577348639195 1619.7044106966098L906.577348639195 1627.2044106966098L875.077348639195 1627.2044106966098L875.077348639195 1650.9316834238798L909.304621366465 1650.9316834238798L909.304621366465 1658.4316834238798L866.6228031846449 1658.4316834238798ZM939.7409850028249 1648.8862288784298L939.1955304573748 1652.56804706024C938.809166821015 1655.1589561511498 938.2239395482849 1657.9316834238798 937.4398486391949 1660.8862288784298C936.6557577301048 1663.8407743329699 935.8432577301048 1666.6248652420597 935.0023486391949 1669.2385016056999C934.1614395482849 1671.8521379693298 933.4682577301048 1673.9316834238798 932.9228031846449 1675.4771379693298L926.7864395482849 1675.4771379693298C927.081894093735 1674.0225925147897 927.4682577301048 1672.1021379693298 927.9455304573748 1669.7157743329699C928.4228031846449 1667.3294106966098 928.9057577301048 1664.6646379693298 929.394394093735 1661.7214561511498C929.8830304573748 1658.7782743329699 930.2864395482849 1655.7725925147897 930.6046213664649 1652.7044106966098L931.0137122755549 1648.8862288784298L939.7409850028249 1648.8862288784298ZM992.2955304573749 1658.4316834238798L992.2955304573749 1588.6135016056999L1034.4318940937349 1588.6135016056999L1034.4318940937349 1596.1135016056999L1000.7500759119249 1596.1135016056999L1000.7500759119249 1619.7044106966098L1032.2500759119248 1619.7044106966098L1032.2500759119248 1627.2044106966098L1000.7500759119249 1627.2044106966098L1000.7500759119249 1650.9316834238798L1034.977348639195 1650.9316834238798L1034.977348639195 1658.4316834238798L992.2955304573749 1658.4316834238798ZM1057.368257730105 1658.4316834238798L1048.504621366465 1658.4316834238798L1074.140985002825 1588.6135016056999L1082.868257730105 1588.6135016056999L1108.504621366465 1658.4316834238798L1099.640985002825 1658.4316834238798L1078.7773486391948 1599.6589561511498L1078.2318940937348 1599.6589561511498L1057.368257730105 1658.4316834238798ZM1060.640985002825 1631.1589561511498L1096.368257730105 1631.1589561511498L1096.368257730105 1638.6589561511498L1060.640985002825 1638.6589561511498L1060.640985002825 1631.1589561511498ZM1124.2137122755548 1658.4316834238798L1124.2137122755548 1588.6135016056999L1147.8046213664647 1588.6135016056999C1153.2591668210148 1588.6135016056999 1157.736439548285 1589.5396379693298 1161.236439548285 1591.3919106966098C1164.736439548285 1593.2441834238798 1167.327348639195 1595.7839561511498 1169.0091668210148 1599.0112288784298C1170.6909850028248 1602.2385016056999 1171.531894093735 1605.9089561511498 1171.531894093735 1610.0225925147897C1171.531894093735 1614.1362288784298 1170.6909850028248 1617.7839561511498 1169.0091668210148 1620.9657743329699C1167.327348639195 1624.1475925147897 1164.747803184645 1626.6419106966098 1161.270530457375 1628.4487288784298C1157.7932577301049 1630.25554706024 1153.350075911925 1631.1589561511498 1147.9409850028248 1631.1589561511498L1128.850075911925 1631.1589561511498L1128.850075911925 1623.5225925147897L1147.6682577301049 1623.5225925147897C1151.395530457375 1623.5225925147897 1154.4012122755548 1622.9771379693298 1156.685303184645 1621.8862288784298C1158.969394093735 1620.7953197875197 1160.6284850028248 1619.2441834238798 1161.662575911925 1617.2328197875197C1162.6966668210148 1615.2214561511498 1163.2137122755548 1612.81804706024 1163.2137122755548 1610.0225925147897C1163.2137122755548 1607.2271379693298 1162.6909850028248 1604.7839561511498 1161.645530457375 1602.69304706024C1160.600075911925 1600.6021379693298 1158.9296213664647 1598.9828197875197 1156.6341668210148 1597.8350925147897C1154.3387122755548 1596.6873652420597 1151.3046213664647 1596.1135016056999 1147.531894093735 1596.1135016056999L1132.6682577301049 1596.1135016056999L1132.6682577301049 1658.4316834238798L1124.2137122755548 1658.4316834238798ZM1157.077348639195 1627.06804706024L1174.2591668210148 1658.4316834238798L1164.4409850028248 1658.4316834238798L1147.531894093735 1627.06804706024L1157.077348639195 1627.06804706024ZM1245.7409850028248 1588.6135016056999L1245.7409850028248 1658.4316834238798L1237.559166821015 1658.4316834238798L1199.513712275555 1603.6135016056999L1198.831894093735 1603.6135016056999L1198.831894093735 1658.4316834238798L1190.377348639195 1658.4316834238798L1190.377348639195 1588.6135016056999L1198.559166821015 1588.6135016056999L1236.7409850028248 1643.56804706024L1237.4228031846449 1643.56804706024L1237.4228031846449 1588.6135016056999L1245.7409850028248 1588.6135016056999ZM1278.359166821015 1648.8862288784298L1277.8137122755547 1652.56804706024C1277.4273486391949 1655.1589561511498 1276.8421213664649 1657.9316834238798 1276.058030457375 1660.8862288784298C1275.273939548285 1663.8407743329699 1274.461439548285 1666.6248652420597 1273.620530457375 1669.2385016056999C1272.7796213664649 1671.8521379693298 1272.086439548285 1673.9316834238798 1271.540985002825 1675.4771379693298L1265.4046213664649 1675.4771379693298C1265.7000759119248 1674.0225925147897 1266.086439548285 1672.1021379693298 1266.5637122755547 1669.7157743329699C1267.040985002825 1667.3294106966098 1267.523939548285 1664.6646379693298 1268.0125759119248 1661.7214561511498C1268.5012122755547 1658.7782743329699 1268.9046213664649 1655.7725925147897 1269.2228031846448 1652.7044106966098L1269.631894093735 1648.8862288784298L1278.359166821015 1648.8862288784298ZM1330.9137122755549 1658.4316834238798L1330.9137122755549 1588.6135016056999L1373.050075911925 1588.6135016056999L1373.050075911925 1596.1135016056999L1339.368257730105 1596.1135016056999L1339.368257730105 1619.7044106966098L1370.868257730105 1619.7044106966098L1370.868257730105 1627.2044106966098L1339.368257730105 1627.2044106966098L1339.368257730105 1650.9316834238798L1373.595530457375 1650.9316834238798L1373.595530457375 1658.4316834238798L1330.9137122755549 1658.4316834238798ZM1393.122803184645 1588.6135016056999L1403.2137122755548 1588.6135016056999L1426.9409850028248 1646.56804706024L1427.7591668210148 1646.56804706024L1451.486439548285 1588.6135016056999L1461.577348639195 1588.6135016056999L1461.577348639195 1658.4316834238798L1453.6682577301049 1658.4316834238798L1453.6682577301049 1605.3862288784298L1452.986439548285 1605.3862288784298L1431.1682577301049 1658.4316834238798L1423.531894093735 1658.4316834238798L1401.7137122755548 1605.3862288784298L1401.031894093735 1605.3862288784298L1401.031894093735 1658.4316834238798L1393.122803184645 1658.4316834238798L1393.122803184645 1588.6135016056999ZM1483.2864395482848 1658.4316834238798L1483.2864395482848 1588.6135016056999L1506.877348639195 1588.6135016056999C1512.354621366465 1588.6135016056999 1516.837575911925 1589.5964561511498 1520.326212275555 1591.5623652420597C1523.814848639195 1593.5282743329699 1526.400075911925 1596.1816834238798 1528.081894093735 1599.5225925147897C1529.7637122755548 1602.8635016056999 1530.604621366465 1606.5907743329699 1530.604621366465 1610.7044106966098C1530.604621366465 1614.81804706024 1529.769394093735 1618.5566834238798 1528.098939548285 1621.9203197875197C1526.4284850028248 1625.2839561511498 1523.854621366465 1627.9600925147897 1520.377348639195 1629.9487288784298C1516.900075911925 1631.9373652420597 1512.4455304573748 1632.9316834238798 1507.013712275555 1632.9316834238798L1490.104621366465 1632.9316834238798L1490.104621366465 1625.4316834238798L1506.7409850028248 1625.4316834238798C1510.4909850028248 1625.4316834238798 1513.502348639195 1624.7839561511498 1515.775075911925 1623.4885016056999C1518.0478031846449 1622.19304706024 1519.701212275555 1620.4373652420597 1520.7353031846449 1618.2214561511498C1521.769394093735 1616.00554706024 1522.2864395482848 1613.4998652420597 1522.2864395482848 1610.7044106966098C1522.2864395482848 1607.9089561511498 1521.769394093735 1605.4089561511498 1520.7353031846449 1603.2044106966098C1519.701212275555 1600.9998652420597 1518.0364395482848 1599.2669106966098 1515.7409850028248 1598.00554706024C1513.4455304573748 1596.7441834238798 1510.400075911925 1596.1135016056999 1506.604621366465 1596.1135016056999L1491.7409850028248 1596.1135016056999L1491.7409850028248 1658.4316834238798L1483.2864395482848 1658.4316834238798ZM1607.9500759119248 1623.5225925147897C1607.9500759119248 1630.8862288784298 1606.6205304573748 1637.2498652420597 1603.961439548285 1642.6135016056999C1601.3023486391949 1647.9771379693298 1597.6546213664649 1652.1135016056999 1593.0182577301048 1655.0225925147897C1588.381894093735 1657.9316834238798 1583.086439548285 1659.3862288784298 1577.131894093735 1659.3862288784298C1571.1773486391949 1659.3862288784298 1565.881894093735 1657.9316834238798 1561.2455304573748 1655.0225925147897C1556.609166821015 1652.1135016056999 1552.961439548285 1647.9771379693298 1550.3023486391949 1642.6135016056999C1547.6432577301048 1637.2498652420597 1546.313712275555 1630.8862288784298 1546.313712275555 1623.5225925147897C1546.313712275555 1616.1589561511498 1547.6432577301048 1609.7953197875197 1550.3023486391949 1604.4316834238798C1552.961439548285 1599.06804706024 1556.609166821015 1594.9316834238798 1561.2455304573748 1592.0225925147897C1565.881894093735 1589.1135016056999 1571.1773486391949 1587.6589561511498 1577.131894093735 1587.6589561511498C1583.086439548285 1587.6589561511498 1588.381894093735 1589.1135016056999 1593.0182577301048 1592.0225925147897C1597.6546213664649 1594.9316834238798 1601.3023486391949 1599.06804706024 1603.961439548285 1604.4316834238798C1606.6205304573748 1609.7953197875197 1607.9500759119248 1616.1589561511498 1607.9500759119248 1623.5225925147897ZM1599.7682577301048 1623.5225925147897C1599.7682577301048 1617.4771379693298 1598.7625759119248 1612.3748652420597 1596.751212275555 1608.2157743329699C1594.7398486391949 1604.0566834238798 1592.023939548285 1600.9089561511498 1588.603485002825 1598.7725925147897C1585.1830304573748 1596.6362288784298 1581.359166821015 1595.56804706024 1577.131894093735 1595.56804706024C1572.9046213664649 1595.56804706024 1569.0807577301048 1596.6362288784298 1565.6603031846448 1598.7725925147897C1562.2398486391949 1600.9089561511498 1559.523939548285 1604.0566834238798 1557.5125759119248 1608.2157743329699C1555.501212275555 1612.3748652420597 1554.4955304573748 1617.4771379693298 1554.4955304573748 1623.5225925147897C1554.4955304573748 1629.56804706024 1555.501212275555 1634.6703197875197 1557.5125759119248 1638.8294106966098C1559.523939548285 1642.9885016056999 1562.2398486391949 1646.1362288784298 1565.6603031846448 1648.2725925147897C1569.0807577301048 1650.4089561511498 1572.9046213664649 1651.4771379693298 1577.131894093735 1651.4771379693298C1581.359166821015 1651.4771379693298 1585.1830304573748 1650.4089561511498 1588.603485002825 1648.2725925147897C1592.023939548285 1646.1362288784298 1594.7398486391949 1642.9885016056999 1596.751212275555 1638.8294106966098C1598.7625759119248 1634.6703197875197 1599.7682577301048 1629.56804706024 1599.7682577301048 1623.5225925147897ZM1639.613712275555 1658.4316834238798L1620.522803184645 1588.6135016056999L1629.113712275555 1588.6135016056999L1643.7046213664648 1645.4771379693298L1644.386439548285 1645.4771379693298L1659.2500759119248 1588.6135016056999L1668.795530457375 1588.6135016056999L1683.6591668210149 1645.4771379693298L1684.340985002825 1645.4771379693298L1698.9318940937349 1588.6135016056999L1707.522803184645 1588.6135016056999L1688.4318940937349 1658.4316834238798L1679.7046213664648 1658.4316834238798L1664.295530457375 1602.7953197875197L1663.7500759119248 1602.7953197875197L1648.340985002825 1658.4316834238798L1639.613712275555 1658.4316834238798ZM1722.822803184645 1658.4316834238798L1722.822803184645 1588.6135016056999L1764.9591668210148 1588.6135016056999L1764.9591668210148 1596.1135016056999L1731.277348639195 1596.1135016056999L1731.277348639195 1619.7044106966098L1762.777348639195 1619.7044106966098L1762.777348639195 1627.2044106966098L1731.277348639195 1627.2044106966098L1731.277348639195 1650.9316834238798L1765.5046213664648 1650.9316834238798L1765.5046213664648 1658.4316834238798L1722.822803184645 1658.4316834238798ZM1785.031894093735 1658.4316834238798L1785.031894093735 1588.6135016056999L1808.622803184645 1588.6135016056999C1814.077348639195 1588.6135016056999 1818.554621366465 1589.5396379693298 1822.054621366465 1591.3919106966098C1825.554621366465 1593.2441834238798 1828.145530457375 1595.7839561511498 1829.827348639195 1599.0112288784298C1831.5091668210148 1602.2385016056999 1832.350075911925 1605.9089561511498 1832.350075911925 1610.0225925147897C1832.350075911925 1614.1362288784298 1831.5091668210148 1617.7839561511498 1829.827348639195 1620.9657743329699C1828.145530457375 1624.1475925147897 1825.5659850028248 1626.6419106966098 1822.0887122755548 1628.4487288784298C1818.6114395482848 1630.25554706024 1814.1682577301049 1631.1589561511498 1808.7591668210148 1631.1589561511498L1789.6682577301049 1631.1589561511498L1789.6682577301049 1623.5225925147897L1808.4864395482848 1623.5225925147897C1812.2137122755548 1623.5225925147897 1815.219394093735 1622.9771379693298 1817.5034850028248 1621.8862288784298C1819.787575911925 1620.7953197875197 1821.4466668210148 1619.2441834238798 1822.4807577301049 1617.2328197875197C1823.514848639195 1615.2214561511498 1824.031894093735 1612.81804706024 1824.031894093735 1610.0225925147897C1824.031894093735 1607.2271379693298 1823.5091668210148 1604.7839561511498 1822.4637122755548 1602.69304706024C1821.4182577301049 1600.6021379693298 1819.747803184645 1598.9828197875197 1817.452348639195 1597.8350925147897C1815.156894093735 1596.6873652420597 1812.122803184645 1596.1135016056999 1808.350075911925 1596.1135016056999L1793.4864395482848 1596.1135016056999L1793.4864395482848 1658.4316834238798L1785.031894093735 1658.4316834238798ZM1817.895530457375 1627.06804706024L1835.077348639195 1658.4316834238798L1825.2591668210148 1658.4316834238798L1808.350075911925 1627.06804706024L1817.895530457375 1627.06804706024Z " transform="matrix(.5 0 0 .5 -4.227 171.114)" class="color404040 svgShape"></path></g></g></svg></g></svg>